<?xml version="1.0" encoding="utf-8"?>
<!-- Generator: Adobe Illustrator 16.0.0, SVG Export Plug-In . SVG Version: 6.00 Build 0)  -->
<!DOCTYPE svg PUBLIC "-//W3C//DTD SVG 1.1//EN" "http://www.w3.org/Graphics/SVG/1.1/DTD/svg11.dtd">
<svg version="1.1" id="Layer_1" xmlns="http://www.w3.org/2000/svg" xmlns:xlink="http://www.w3.org/1999/xlink" x="0px" y="0px"
	 width="283.46px" height="226.77px" viewBox="0 0 283.46 226.77" enable-background="new 0 0 283.46 226.77" xml:space="preserve">
<path fill="#698CAF" d="M210.321,89.816h-30.431c-4.557,0-8.251-3.692-8.251-8.252c0-4.557,3.694-8.251,8.251-8.251h22.471
	c4.557,0,8.251-3.691,8.251-8.251c0-4.554-3.694-8.251-8.251-8.251h-91.286c-4.56,0-8.251,3.697-8.251,8.251
	c0,4.56,3.691,8.251,8.251,8.251h35.515c4.559,0,8.251,3.694,8.251,8.251c0,4.56-3.692,8.252-8.251,8.252H73.139
	c-4.557,0-8.251,3.694-8.251,8.251c0,4.559,3.694,8.251,8.251,8.251h137.183c4.557,0,8.251-3.692,8.251-8.251
	C218.572,93.511,214.878,89.816,210.321,89.816z"/>
</svg>
