<?xml version="1.0" encoding="utf-8"?>
<!-- Generator: Adobe Illustrator 16.0.0, SVG Export Plug-In . SVG Version: 6.00 Build 0)  -->
<!DOCTYPE svg PUBLIC "-//W3C//DTD SVG 1.1//EN" "http://www.w3.org/Graphics/SVG/1.1/DTD/svg11.dtd">
<svg version="1.1" id="Layer_1" xmlns="http://www.w3.org/2000/svg" xmlns:xlink="http://www.w3.org/1999/xlink" x="0px" y="0px"
	 width="283.46px" height="226.77px" viewBox="0 0 283.46 226.77" enable-background="new 0 0 283.46 226.77" xml:space="preserve">
<g>
	<path fill="#FFDA84" d="M162.495,172.291c-0.386,4.907-17.865,7.443-22.264,13.114c-4.398,5.672-1.176,11.208-0.389,11.337
		c0.788,0.128,7.656-4.819,13.82-8.425c6.165-3.605,21.197-7.548,21.197-7.548s-1.756-12.617,5.024-21.164
		c6.781-8.547,6.245-22.643-7.851-29.424c-14.097-6.78-28.509,1.844-31.404,9.992C130.994,167.296,163.127,164.261,162.495,172.291z
		"/>
	<path fill="#FFDA84" d="M122.162,127.736c0,0-2.349,10.687-1.874,15.248c0,0-9.367,6.424-11.509,10.572
		c-2.141,4.148-2.408,8.967-1.873,10.305s1.421,3.318,1.739,4.35c0.694,2.244-1.472,2.476-1.472,2.476s-0.237,1.472-1.606,2.274
		c-1.368,0.804-2.854,0.224-4.015-0.847c0,0-1.07,0.803-2.141-0.625s-4.015-8.029-3.301-13.828c0.713-5.8,7.404-16.327,7.315-19.004
		c-0.089-2.676-2.944-19.806-2.944-19.806S117.701,109.678,122.162,127.736z"/>
	<path fill="#FFDA84" d="M92.525,76.895c1.007-1.387,5.223-3.821,7.006-6.751c1.783-2.929,6.75-14.265,12.737-20.634
		c5.986-6.368,21.177-11.845,27.91-13.501c6.734-1.655,14.631-3.693,16.032-2.42c1.4,1.273-3.312,11.463-7.261,16.176
		c-3.948,4.713-17.819,15.03-31.842,19.233c-9.146,2.741-17.959,8.539-19.87,9.939C95.328,80.339,89.771,80.69,92.525,76.895z"/>
	<circle fill="#FFDA84" cx="213.424" cy="122.754" r="15.167"/>
	<g>
		<g>
			<path fill="#FBF7EC" d="M213.966,194.774c-1.605-6.958-0.892-22.482-0.892-22.482c-8.387-4.282-6.246-12.669-3.926-22.304
				c2.319-9.636-0.535-19.984-8.208-28.728s-23.731-12.49-38.72-14.632s-30.513-7.494-41.575-15.523
				c-4.607-3.345-7.851-14.988-17.308-17.665s-19.807-0.536-27.836,6.245c-6.362,5.373-10.706,17.486-7.852,21.947
				c2.855,4.461,12.669,7.494,24.445,6.959c0,0,3.569,16.059,13.562,27.657c9.992,11.598,32.653,19.984,48.712,22.304
				c2.321,0.335,4.454,0.689,6.414,1.05c3.493,6.076,8.375,10.648,13.393,13.582c11.598,6.78,23.553,4.996,27.121,8.386
				c3.569,3.391,1.785,19.271,5.889,25.159c4.104,5.889,10.349,4.461,10.706,3.747C218.248,209.764,215.572,201.733,213.966,194.774
				z"/>
			<g>
				<path fill="#FFDA84" d="M157.046,128.22c0,0-0.061,0.503-0.166,1.384c-0.059,0.439-0.13,0.974-0.212,1.585
					c-0.07,0.613-0.195,1.302-0.271,2.054c-0.048,0.751-0.1,1.565-0.155,2.427c-0.045,0.86-0.147,1.759-0.103,2.701
					c0.01,0.938,0.02,1.909,0.03,2.895c0.016,0.984,0.171,1.977,0.25,2.973l0.134,1.492c0.091,0.489,0.181,0.977,0.271,1.46
					c0.209,0.961,0.28,1.938,0.556,2.836c0.254,0.901,0.476,1.782,0.689,2.618c0.22,0.834,0.551,1.582,0.791,2.297
					c0.277,0.699,0.445,1.381,0.722,1.929c0.251,0.562,0.469,1.051,0.648,1.454c0.351,0.815,0.551,1.282,0.551,1.282
					s-0.263-0.434-0.723-1.191c-0.226-0.385-0.499-0.851-0.813-1.386c-0.344-0.522-0.588-1.181-0.906-1.875
					c-0.292-0.706-0.68-1.447-0.961-2.278c-0.275-0.832-0.571-1.711-0.851-2.63c-0.161-0.454-0.26-0.931-0.355-1.415
					c-0.099-0.484-0.198-0.975-0.298-1.468c-0.098-0.495-0.195-0.993-0.294-1.494l-0.153-1.525c-0.07-1.021-0.216-2.038-0.222-3.045
					c0.02-1.006,0.038-1.996,0.057-2.954c-0.024-0.959,0.155-1.88,0.259-2.752c0.115-0.869,0.225-1.691,0.325-2.45
					c0.116-0.753,0.319-1.42,0.459-2.021c0.149-0.6,0.279-1.122,0.387-1.553C156.916,128.71,157.046,128.22,157.046,128.22z"/>
			</g>
			<g>
				<radialGradient id="SVGID_1_" cx="94.6831" cy="99.9556" r="11.8491" gradientUnits="userSpaceOnUse">
					<stop  offset="0" style="stop-color:#F6C5C8"/>
					<stop  offset="1" style="stop-color:#FBF7EC;stop-opacity:0"/>
				</radialGradient>
				<circle fill="url(#SVGID_1_)" cx="94.683" cy="99.955" r="11.849"/>
				<g>
					<path fill="#164070" d="M86.931,95.442c-0.19,0.546-1.398,1.088-1.282,1.865c0.116,0.776,1.243,0.66,1.826,0.894
						c0.582,0.232,1.666,1.869,4.506,1.748c3.652-0.155,4.347-3.404,5.163-3.638c0.815-0.233,1.915-0.802,1.208-1.437
						c-0.362-0.326-1.243-0.233-1.748-0.87c-0.505-0.636-2.477-2.501-4.597-2.369C88.873,91.83,87.513,93.772,86.931,95.442z"/>
					<circle fill="#FBF7EC" cx="93.321" cy="93.978" r="0.694"/>
				</g>
				<g>
					<path fill="#EB8F90" d="M74.137,95.792c0,0-0.404,0.263-1.064,0.541c-0.657,0.286-1.566,0.596-2.507,0.781
						c-0.475,0.068-0.941,0.185-1.394,0.192c-0.45,0.022-0.868,0.05-1.228,0.026c-0.72-0.055-1.188-0.132-1.188-0.132
						s0.479-0.083,1.177-0.148c0.351-0.02,0.753-0.131,1.187-0.181c0.434-0.048,0.889-0.17,1.349-0.245
						c0.459-0.08,0.911-0.203,1.344-0.283c0.423-0.113,0.833-0.176,1.172-0.275C73.676,95.902,74.137,95.792,74.137,95.792z"/>
				</g>
			</g>
		</g>
		<g>
			<path fill="#EB8F90" d="M193.723,139.981c0.105-0.311,0.165-0.641,0.165-0.986c0-1.698-1.376-3.074-3.073-3.074
				c-0.681,0-1.307,0.224-1.815,0.598c-0.432-2.308-2.455-4.055-4.888-4.055s-4.456,1.747-4.888,4.055
				c-0.51-0.374-1.136-0.598-1.815-0.598c-1.698,0-3.074,1.376-3.074,3.074c0,0.346,0.06,0.676,0.165,0.986
				c-2.197,0.04-3.966,1.832-3.966,4.038c0,2.231,1.81,4.04,4.04,4.04h19.075c2.231,0,4.04-1.809,4.04-4.04
				C197.688,141.813,195.92,140.021,193.723,139.981z"/>
			<g>
				<g>
					<polyline fill="none" stroke="#FBF7EC" stroke-width="0.4169" stroke-linejoin="round" stroke-miterlimit="10" points="
						176.748,143.456 184.111,146.461 180.43,140.889 					"/>
					
						<line fill="none" stroke="#FBF7EC" stroke-width="0.4169" stroke-linejoin="round" stroke-miterlimit="10" x1="184.111" y1="138.604" x2="184.111" y2="146.461"/>
					<polyline fill="none" stroke="#FBF7EC" stroke-width="0.4169" stroke-linejoin="round" stroke-miterlimit="10" points="
						191.474,143.456 184.111,146.461 187.792,140.889 					"/>
				</g>
			</g>
			<g>
				<g>
					<circle fill="#FBF7EC" cx="176.748" cy="143.528" r="0.533"/>
					<circle fill="#FBF7EC" cx="180.429" cy="140.889" r="0.625"/>
					<circle fill="#FBF7EC" cx="191.474" cy="143.456" r="0.625"/>
					<circle fill="#FBF7EC" cx="187.792" cy="140.889" r="0.625"/>
					<circle fill="#FBF7EC" cx="184.111" cy="138.604" r="0.625"/>
				</g>
			</g>
		</g>
	</g>
	<g>
		<path fill="#FBF7EC" d="M120.891,131.174c0,0-9.524,5.387-12.603,8.786c0,0-11.037-2.685-15.555-1.508
			c-4.518,1.176-8.283,4.193-8.922,5.485s-1.521,3.273-2.076,4.199c-1.207,2.015-2.826,0.557-2.826,0.557s-1.254,0.807-2.766,0.324
			c-1.512-0.483-2.072-1.977-2.05-3.555c0,0-1.313-0.261-0.965-2.011c0.348-1.751,6.087-10.021,8.09-11.691
			c4.488-3.741,17.099-5.389,19.031-7.242c1.934-1.854,12.778-15.416,12.778-15.416S131.354,115.795,120.891,131.174z"/>
		<g>
			<path fill="#FFDA84" d="M120.891,131.174l-3.184,2.173c-1.062,0.721-2.123,1.437-3.158,2.188
				c-0.525,0.364-1.033,0.752-1.547,1.129c-0.507,0.386-1.044,0.737-1.523,1.149l-1.478,1.191l-1.343,1.291l-0.222,0.213
				l-0.267-0.063c-2.526-0.597-5.096-1.1-7.662-1.531c-1.284-0.223-2.577-0.387-3.873-0.487c-0.648-0.07-1.297-0.093-1.949-0.111
				l-0.977,0.031l-0.976,0.105l0.956-0.257l0.981-0.147c0.657-0.058,1.32-0.111,1.981-0.116c0.662-0.009,1.322,0.028,1.982,0.06
				c0.659,0.039,1.317,0.088,1.975,0.154c2.63,0.262,5.219,0.736,7.797,1.331l-0.487,0.149l1.448-1.361l1.541-1.198
				c0.511-0.406,1.063-0.74,1.592-1.113c0.529-0.371,1.072-0.721,1.627-1.05c1.097-0.68,2.207-1.332,3.327-1.967
				C118.594,132.335,119.721,131.714,120.891,131.174z"/>
		</g>
	</g>
	<path fill="#FBF7EC" d="M100.506,75.887c1.649-0.466,6.467,0.23,9.681-0.967s14.131-7.027,22.774-8.324
		c8.645-1.297,23.966,3.803,30.279,6.669c6.314,2.867,13.778,6.154,14.091,8.021c0.312,1.867-9.696,6.955-15.714,8.213
		c-6.019,1.258-23.299,0.776-36.915-4.601c-8.881-3.508-19.391-4.408-21.759-4.49S95.993,77.163,100.506,75.887z"/>
	<g>
		<g>
			<g>
				<path fill="#F6C5C8" d="M186.552,152.384c0,0.65-1.176,3.324-1.176,3.324s-1.177-2.674-1.177-3.324
					c0-0.649,0.526-1.176,1.177-1.176C186.025,151.208,186.552,151.734,186.552,152.384z"/>
				<path fill="#F6C5C8" d="M184.199,160.671c0-0.649,1.177-3.324,1.177-3.324s1.176,2.675,1.176,3.324s-0.526,1.177-1.176,1.177
					C184.726,161.848,184.199,161.32,184.199,160.671z"/>
				<path fill="#F6C5C8" d="M189.52,157.704c-0.65,0-3.324-1.177-3.324-1.177s2.674-1.176,3.324-1.176
					c0.649,0,1.176,0.526,1.176,1.176S190.169,157.704,189.52,157.704z"/>
				<path fill="#F6C5C8" d="M181.232,155.352c0.649,0,3.324,1.176,3.324,1.176s-2.675,1.177-3.324,1.177s-1.177-0.527-1.177-1.177
					S180.583,155.352,181.232,155.352z"/>
				<path fill="#F6C5C8" d="M189.137,154.43c-0.459,0.459-3.182,1.519-3.182,1.519s1.06-2.723,1.519-3.183
					c0.46-0.459,1.204-0.459,1.663,0C189.597,153.226,189.597,153.97,189.137,154.43z"/>
				<path fill="#F6C5C8" d="M181.614,158.626c0.459-0.46,3.183-1.52,3.183-1.52s-1.06,2.724-1.52,3.183
					c-0.459,0.459-1.204,0.459-1.663,0C181.154,159.83,181.154,159.085,181.614,158.626z"/>
				<path fill="#F6C5C8" d="M187.474,160.289c-0.459-0.459-1.519-3.183-1.519-3.183s2.723,1.06,3.182,1.52
					c0.46,0.459,0.46,1.204,0,1.663C188.678,160.748,187.934,160.748,187.474,160.289z"/>
				<path fill="#F6C5C8" d="M183.277,152.766c0.46,0.46,1.52,3.183,1.52,3.183s-2.724-1.06-3.183-1.519
					c-0.46-0.46-0.46-1.204,0-1.664C182.073,152.307,182.818,152.307,183.277,152.766z"/>
			</g>
		</g>
		<g>
			<g>
				<path fill="#F6C5C8" d="M171.026,125.2c0,0.649-1.177,3.324-1.177,3.324s-1.176-2.675-1.176-3.324s0.526-1.176,1.176-1.176
					C170.5,124.024,171.026,124.551,171.026,125.2z"/>
				<path fill="#F6C5C8" d="M168.674,133.487c0-0.649,1.176-3.324,1.176-3.324s1.177,2.675,1.177,3.324s-0.526,1.176-1.177,1.176
					C169.2,134.663,168.674,134.137,168.674,133.487z"/>
				<path fill="#F6C5C8" d="M173.993,130.521c-0.649,0-3.324-1.177-3.324-1.177s2.675-1.177,3.324-1.177s1.177,0.527,1.177,1.177
					S174.643,130.521,173.993,130.521z"/>
				<path fill="#F6C5C8" d="M165.707,128.167c0.649,0,3.324,1.177,3.324,1.177s-2.675,1.177-3.324,1.177
					c-0.65,0-1.177-0.527-1.177-1.177S165.057,128.167,165.707,128.167z"/>
				<path fill="#F6C5C8" d="M173.611,127.246c-0.459,0.459-3.182,1.519-3.182,1.519s1.06-2.723,1.519-3.183
					c0.459-0.459,1.204-0.459,1.663,0C174.071,126.042,174.071,126.786,173.611,127.246z"/>
				<path fill="#F6C5C8" d="M166.089,131.441c0.459-0.459,3.182-1.519,3.182-1.519s-1.06,2.723-1.519,3.183
					c-0.459,0.459-1.204,0.459-1.663,0C165.629,132.646,165.629,131.901,166.089,131.441z"/>
				<path fill="#F6C5C8" d="M171.948,133.105c-0.459-0.46-1.519-3.183-1.519-3.183s2.723,1.06,3.182,1.519
					c0.46,0.46,0.46,1.204,0,1.664C173.152,133.564,172.407,133.564,171.948,133.105z"/>
				<path fill="#F6C5C8" d="M167.752,125.582c0.459,0.46,1.519,3.183,1.519,3.183s-2.723-1.06-3.182-1.519
					c-0.46-0.46-0.46-1.204,0-1.664C166.548,125.123,167.293,125.123,167.752,125.582z"/>
			</g>
		</g>
		<g>
			<g>
				<path fill="#F6C5C8" d="M196.792,124.381c0,0.65-1.176,3.324-1.176,3.324s-1.177-2.674-1.177-3.324
					c0-0.649,0.527-1.176,1.177-1.176S196.792,123.731,196.792,124.381z"/>
				<path fill="#F6C5C8" d="M194.439,132.668c0-0.649,1.177-3.324,1.177-3.324s1.176,2.675,1.176,3.324s-0.526,1.177-1.176,1.177
					S194.439,133.317,194.439,132.668z"/>
				<path fill="#F6C5C8" d="M199.76,129.701c-0.65,0-3.324-1.177-3.324-1.177s2.674-1.176,3.324-1.176
					c0.649,0,1.176,0.526,1.176,1.176S200.409,129.701,199.76,129.701z"/>
				<path fill="#F6C5C8" d="M191.473,127.349c0.649,0,3.324,1.176,3.324,1.176s-2.675,1.177-3.324,1.177s-1.177-0.527-1.177-1.177
					S190.823,127.349,191.473,127.349z"/>
				<path fill="#F6C5C8" d="M199.377,126.427c-0.459,0.459-3.182,1.519-3.182,1.519s1.06-2.723,1.519-3.183
					c0.46-0.459,1.204-0.459,1.663,0C199.837,125.223,199.837,125.967,199.377,126.427z"/>
				<path fill="#F6C5C8" d="M191.854,130.623c0.459-0.46,3.183-1.52,3.183-1.52s-1.06,2.724-1.52,3.183
					c-0.459,0.459-1.204,0.459-1.663,0C191.395,131.827,191.395,131.082,191.854,130.623z"/>
				<path fill="#F6C5C8" d="M197.714,132.286c-0.459-0.459-1.519-3.183-1.519-3.183s2.723,1.06,3.182,1.52
					c0.46,0.459,0.46,1.204,0,1.663C198.918,132.745,198.174,132.745,197.714,132.286z"/>
				<path fill="#F6C5C8" d="M193.518,124.763c0.46,0.46,1.52,3.183,1.52,3.183s-2.724-1.06-3.183-1.519
					c-0.46-0.46-0.46-1.204,0-1.664C192.313,124.304,193.059,124.304,193.518,124.763z"/>
			</g>
		</g>
	</g>
</g>
</svg>
