<?xml version="1.0" encoding="utf-8"?>
<!-- Generator: Adobe Illustrator 16.0.0, SVG Export Plug-In . SVG Version: 6.00 Build 0)  -->
<!DOCTYPE svg PUBLIC "-//W3C//DTD SVG 1.1//EN" "http://www.w3.org/Graphics/SVG/1.1/DTD/svg11.dtd">
<svg version="1.1" id="Layer_1" xmlns="http://www.w3.org/2000/svg" xmlns:xlink="http://www.w3.org/1999/xlink" x="0px" y="0px"
	 width="283.46px" height="226.77px" viewBox="0 0 283.46 226.77" enable-background="new 0 0 283.46 226.77" xml:space="preserve">
<g>
	<circle fill="#FFDA84" cx="90.913" cy="172.882" r="15.672"/>
	<path fill="#FFDA84" d="M161.763,80.498c0,0,0.044-2.612-0.862-5.626c-0.904-3.015-7.814-14.844-2.52-27.993
		c5.293-13.149,17.307-29.607,18.443-29.518c1.138,0.091,5.814,15.339,3.631,29.471s-12.331,23.544-12.927,26.931
		c-0.596,3.386-1.651,6.41-2.216,7.345C164.746,82.043,162.431,83.412,161.763,80.498z"/>
	<path fill="#FBF7EC" d="M171.822,85.717c0,0,1.729-1.959,2.996-4.84s3.688-16.364,16.249-22.933
		c12.562-6.569,32.383-11.294,33.189-10.487s-5.532,15.442-16.364,24.776c-10.832,9.335-24.662,9.911-27.313,12.101
		s-5.416,3.806-6.453,4.15C173.09,88.828,170.439,88.367,171.822,85.717z"/>
	<path fill="#FFDA84" d="M168.715,137.086c0,0,2.96-1.766,9.018-5.404c6.057-3.639,11.646-1.577,11.646-1.577
		s4.402-13.772,6.073-15.955c1.67-2.183,4.379-5.042,6.312-5.985c1.934-0.943,5.167-1.324,5.801-2.829
		c0.633-1.506-0.29-5.501-4.753-5.888c-4.463-0.388-11.708,2.634-13.581,4.401c-1.872,1.769-3.887,10.957-8.028,12.807
		c-4.141,1.849-10.761-1.268-13.25,0.288S157.934,136.361,168.715,137.086z"/>
	<g>
		<g>
			<path fill="#FBF7EC" d="M169.979,170.764c7.145,12.907,2.305,30.193,2.305,30.193s8.527-2.766,13.599-0.922
				c5.07,1.844,3.918,9.373,3.918,9.373h-83.511c-10.756-12.293-11.678-26.736-8.144-38.414s18.745-23.201,21.204-25.813
				s9.68-13.368,13.521-20.896c3.842-7.529,13.874-17.747,13.874-17.747c-7.134-3.242-17.632-10.104-17.673-14.43
				c-0.066-6.972,8.998-14.71,21.402-16.214c10.7-1.297,23.509,3.567,26.428,11.836c2.918,8.27,0,20.268,0,20.268
				s2.533,18.91,1.143,30.961C175.971,156.936,169.979,170.764,169.979,170.764z"/>
			<g>
				<path fill="#FFDA84" d="M159.146,209.407c0.365-1.123,0.639-2.274,0.818-3.437c0.096-0.58,0.148-1.165,0.178-1.749
					c0.012-0.584-0.002-1.17-0.107-1.737c-0.088-0.571-0.293-1.112-0.588-1.584c-0.176-0.205-0.343-0.45-0.564-0.587
					c-0.243-0.171-0.463-0.229-0.747-0.313c-1.103-0.265-2.291-0.225-3.454-0.173c-2.337,0.136-4.666,0.514-6.979,0.939
					c-2.312,0.435-4.618,0.943-6.896,1.515l-0.764,0.192l0.279-0.748c2.119-5.678,3.908-11.515,5.161-17.441
					c0.286-1.486,0.581-2.974,0.772-4.471c0.119-0.747,0.224-1.495,0.28-2.246c0.06-0.75,0.175-1.5,0.172-2.251
					c0.079-1.502,0.033-3.002-0.136-4.479l-0.193-1.093l-0.096-0.547l-0.023-0.138c0.016,0.028-0.022-0.069-0.031-0.099l-0.092-0.27
					l-0.37-1.082c-0.065-0.177-0.114-0.367-0.193-0.532l-0.261-0.472l-0.516-0.946c-0.162-0.322-0.437-0.586-0.648-0.882
					c-0.23-0.285-0.443-0.587-0.688-0.86l-0.811-0.75c-1.074-1.011-2.374-1.759-3.709-2.403c-0.658-0.347-1.391-0.529-2.084-0.804
					c-0.703-0.249-1.449-0.363-2.174-0.553c-1.473-0.272-2.971-0.44-4.479-0.441c-0.754-0.052-1.506,0.029-2.259,0.071l-1.13,0.071
					l-1.121,0.169c-1.504,0.175-2.973,0.551-4.447,0.902c-1.443,0.46-2.904,0.885-4.294,1.506c-1.43,0.527-2.758,1.275-4.135,1.933
					c1.343-0.716,2.636-1.546,4.054-2.118c1.376-0.674,2.828-1.154,4.271-1.67c1.476-0.403,2.948-0.851,4.473-1.063l1.135-0.196
					l1.149-0.098c0.767-0.06,1.532-0.157,2.304-0.122c1.541-0.032,3.084,0.105,4.611,0.354c0.752,0.179,1.525,0.282,2.264,0.524
					c0.729,0.269,1.494,0.445,2.193,0.792c1.421,0.637,2.795,1.435,3.953,2.5l0.871,0.797c0.264,0.291,0.498,0.611,0.748,0.917
					c0.232,0.319,0.52,0.594,0.707,0.952l0.583,1.058l0.289,0.53c0.084,0.178,0.132,0.358,0.199,0.538l0.378,1.078l0.094,0.27
					c0.02,0.063,0.025,0.052,0.055,0.174l0.027,0.145l0.106,0.578l0.212,1.155c0.123,0.772,0.123,1.55,0.189,2.324
					c0.054,0.775-0.012,1.546-0.014,2.319c0.008,0.775-0.104,1.537-0.159,2.306c-0.053,0.77-0.153,1.531-0.269,2.291
					c-0.197,1.525-0.513,3.027-0.813,4.53c-0.33,1.496-0.68,2.987-1.077,4.465c-0.394,1.479-0.808,2.951-1.263,4.411
					c-0.441,1.464-0.921,2.916-1.419,4.361c-0.499,1.446-1.009,2.883-1.579,4.311l-0.485-0.556c2.317-0.528,4.637-0.987,6.976-1.375
					c2.34-0.379,4.692-0.71,7.075-0.798c1.19-0.031,2.397-0.028,3.589,0.298c0.279,0.084,0.63,0.221,0.861,0.402
					c0.271,0.189,0.44,0.46,0.632,0.704c0.314,0.54,0.509,1.132,0.58,1.731c0.089,0.599,0.081,1.2,0.048,1.795
					c-0.051,0.594-0.125,1.185-0.242,1.766C159.896,207.163,159.563,208.303,159.146,209.407z"/>
			</g>
			<g>
				<path fill="#FFDA84" d="M169.979,170.764c0,0-0.209,0.479-0.573,1.317c-0.188,0.416-0.416,0.922-0.679,1.502
					c-0.238,0.59-0.616,1.208-0.999,1.896c-0.403,0.675-0.774,1.456-1.295,2.193c-0.504,0.748-1.003,1.563-1.594,2.354
					c-0.616,0.77-1.22,1.594-1.895,2.381c-0.707,0.757-1.387,1.565-2.139,2.304c-0.771,0.718-1.503,1.479-2.313,2.129
					c-0.396,0.333-0.791,0.663-1.181,0.99c-0.407,0.304-0.81,0.604-1.206,0.898c-0.775,0.611-1.604,1.095-2.357,1.591
					c-0.779,0.458-1.51,0.902-2.211,1.263c-1.381,0.761-2.619,1.22-3.467,1.56c-0.861,0.315-1.37,0.439-1.37,0.439
					s0.479-0.208,1.293-0.618c0.402-0.214,0.898-0.455,1.442-0.779c0.552-0.311,1.159-0.684,1.822-1.089
					c1.322-0.814,2.802-1.863,4.316-3.067c0.377-0.302,0.762-0.609,1.15-0.92c0.373-0.329,0.752-0.661,1.134-0.996
					c0.786-0.645,1.493-1.399,2.241-2.107c0.744-0.714,1.417-1.498,2.119-2.232c0.654-0.776,1.3-1.541,1.924-2.28
					c0.586-0.772,1.152-1.519,1.689-2.227c0.563-0.695,0.969-1.428,1.411-2.067c0.41-0.658,0.851-1.224,1.155-1.784
					c0.322-0.549,0.604-1.027,0.835-1.421C169.707,171.211,169.979,170.764,169.979,170.764z"/>
			</g>
			<g>
				<path fill="#FFDA84" d="M146.745,106.537c0,0,0.308,0.066,0.837,0.206c0.527,0.138,1.285,0.368,2.191,0.54
					c0.454,0.09,0.933,0.219,1.453,0.309c0.521,0.087,1.069,0.178,1.637,0.272c0.57,0.063,1.159,0.126,1.758,0.191
					c0.6,0.03,1.209,0.062,1.818,0.092c0.609-0.013,1.221,0.021,1.818-0.025c0.598-0.047,1.191-0.053,1.758-0.138
					c1.141-0.111,2.189-0.326,3.091-0.526c0.897-0.213,1.641-0.431,2.152-0.615c0.511-0.184,0.802-0.306,0.802-0.306
					s-0.244,0.199-0.719,0.482c-0.481,0.264-1.174,0.658-2.066,0.987c-0.443,0.168-0.933,0.336-1.459,0.478
					c-0.527,0.137-1.086,0.288-1.676,0.371c-0.586,0.113-1.199,0.182-1.824,0.23c-0.624,0.059-1.262,0.039-1.897,0.061
					c-0.634-0.044-1.268-0.087-1.892-0.131c-0.619-0.085-1.227-0.188-1.813-0.286c-0.575-0.144-1.132-0.282-1.66-0.414
					c-0.525-0.135-1.008-0.335-1.455-0.487c-0.906-0.291-1.582-0.684-2.084-0.903C147.021,106.687,146.745,106.537,146.745,106.537z
					"/>
			</g>
		</g>
		<g>
			<g>
				<path fill="#EB8F90" d="M134.702,89.867c0,0-0.17,0.409-0.593,0.853c-0.201,0.236-0.475,0.46-0.777,0.688
					c-0.305,0.227-0.67,0.405-1.031,0.59c-0.391,0.125-0.766,0.286-1.153,0.334c-0.192,0.032-0.382,0.041-0.56,0.052
					c-0.178,0.01-0.34,0.028-0.5-0.003c-0.637-0.092-1.016-0.272-1.016-0.272s0.387-0.25,0.9-0.446
					c0.129-0.045,0.262-0.144,0.407-0.201c0.144-0.068,0.292-0.145,0.45-0.199c0.16-0.045,0.309-0.161,0.475-0.219
					c0.164-0.069,0.33-0.14,0.496-0.21c0.168-0.071,0.336-0.143,0.5-0.213c0.162-0.08,0.343-0.113,0.498-0.19
					c0.32-0.134,0.643-0.228,0.918-0.318C134.271,89.94,134.702,89.867,134.702,89.867z"/>
			</g>
			<radialGradient id="SVGID_1_" cx="156.0566" cy="99.6582" r="9.8555" gradientUnits="userSpaceOnUse">
				<stop  offset="0" style="stop-color:#F6C5C8"/>
				<stop  offset="1" style="stop-color:#FBF7EC;stop-opacity:0"/>
			</radialGradient>
			<circle fill="url(#SVGID_1_)" cx="156.057" cy="99.658" r="9.855"/>
			<g>
				<path fill="#164070" d="M150.045,92.468c-0.317,0.366-1.429,0.414-1.58,1.056c-0.15,0.643,0.765,0.902,1.146,1.266
					c0.383,0.363,0.719,1.977,2.973,2.766c2.897,1.016,4.451-1.304,5.16-1.231s1.743-0.03,1.39-0.745
					c-0.182-0.367-0.897-0.568-1.094-1.223c-0.196-0.653-1.153-2.722-2.849-3.278C152.686,90.253,151.02,91.346,150.045,92.468z"/>
				<circle fill="#FBF7EC" cx="155.487" cy="93.313" r="0.583"/>
			</g>
		</g>
		<g>
			<g>
				<path fill="#164070" d="M120.596,174.667c0,0-2.377-11.316,6.338-21.377C126.934,153.29,129.469,164.673,120.596,174.667z"/>
				<g>
					<path fill="#FBF7EC" d="M125.27,158.36c0,0-0.053,0.284-0.168,0.774c-0.113,0.49-0.274,1.189-0.469,2.029
						c-0.193,0.839-0.472,1.796-0.729,2.837c-0.257,1.042-0.564,2.142-0.869,3.242c-0.334,1.093-0.642,2.192-0.927,3.226
						c-0.291,1.031-0.582,1.988-0.85,2.807c-0.26,0.819-0.517,1.493-0.678,1.97c-0.17,0.475-0.28,0.743-0.28,0.743
						s0.028-0.287,0.101-0.785c0.082-0.495,0.17-1.21,0.326-2.058c0.148-0.85,0.342-1.836,0.57-2.889
						c0.12-0.524,0.223-1.072,0.365-1.619c0.15-0.545,0.304-1.098,0.457-1.651c0.326-1.101,0.648-2.202,0.984-3.226
						c0.324-1.025,0.701-1.963,1.013-2.767C124.746,159.388,125.27,158.36,125.27,158.36z"/>
				</g>
			</g>
			<g>
				<path fill="#164070" d="M121.945,175.532c0,0,4.234-6.779,13.396-7.622C135.342,167.91,131.154,174.799,121.945,175.532z"/>
				<g>
					<path fill="#FBF7EC" d="M132.084,169.642c0,0-0.657,0.542-1.703,1.244c-0.518,0.36-1.146,0.74-1.801,1.17
						c-0.648,0.442-1.355,0.883-2.061,1.326c-1.424,0.864-2.885,1.665-4.018,2.215c-1.129,0.556-1.932,0.857-1.932,0.857
						s0.627-0.569,1.64-1.32c1.009-0.757,2.403-1.699,3.835-2.576c0.723-0.429,1.443-0.86,2.135-1.234
						c0.337-0.203,0.691-0.343,1.016-0.5c0.324-0.155,0.637-0.29,0.926-0.415C131.275,169.903,132.084,169.642,132.084,169.642z"/>
				</g>
			</g>
			<g>
				<g>
					<path fill="#CE5355" d="M115.387,176.986c0,1.464-2.651,7.493-2.651,7.493s-2.651-6.029-2.651-7.493s1.188-2.651,2.651-2.651
						S115.387,175.522,115.387,176.986z"/>
					<path fill="#CE5355" d="M110.084,195.665c0-1.465,2.651-7.493,2.651-7.493s2.651,6.028,2.651,7.493
						c0,1.464-1.188,2.651-2.651,2.651S110.084,197.129,110.084,195.665z"/>
					<path fill="#CE5355" d="M122.074,188.977c-1.464,0-7.492-2.651-7.492-2.651s6.028-2.65,7.492-2.65
						c1.465,0,2.652,1.187,2.652,2.65C124.727,187.79,123.539,188.977,122.074,188.977z"/>
					<path fill="#CE5355" d="M103.396,183.675c1.464,0,7.492,2.65,7.492,2.65s-6.028,2.651-7.492,2.651
						c-1.465,0-2.652-1.187-2.652-2.651C100.744,184.861,101.932,183.675,103.396,183.675z"/>
					<path fill="#CE5355" d="M121.215,181.597c-1.036,1.035-7.174,3.423-7.174,3.423s2.389-6.137,3.424-7.173
						c1.035-1.035,2.714-1.035,3.75,0C122.25,178.883,122.25,180.562,121.215,181.597z"/>
					<path fill="#CE5355" d="M104.257,191.055c1.036-1.035,7.173-3.423,7.173-3.423s-2.388,6.137-3.424,7.173
						c-1.035,1.035-2.713,1.035-3.749,0C103.222,193.769,103.222,192.09,104.257,191.055z"/>
					<path fill="#CE5355" d="M117.465,194.805c-1.035-1.036-3.424-7.173-3.424-7.173s6.138,2.388,7.174,3.423
						c1.035,1.035,1.035,2.714,0,3.75C120.179,195.84,118.5,195.84,117.465,194.805z"/>
					<path fill="#CE5355" d="M108.006,177.847c1.036,1.036,3.424,7.173,3.424,7.173s-6.137-2.388-7.173-3.423
						c-1.035-1.035-1.035-2.714,0-3.75C105.293,176.812,106.971,176.812,108.006,177.847z"/>
				</g>
			</g>
			<circle fill="#F6C5C8" cx="130.566" cy="182.173" r="2.848"/>
			<circle fill="#F6C5C8" cx="107.455" cy="169.487" r="2.848"/>
		</g>
	</g>
	<g>
		<path fill="#FBF7EC" d="M149.8,147.007c0,0,3.434-0.29,10.474-0.904c7.039-0.614,11.158,3.688,11.158,3.688
			s9.994-10.448,12.453-11.678c2.458-1.229,6.146-2.611,8.297-2.611c2.15,0,5.225,1.075,6.453,0
			c1.229-1.076,2.151-5.071-1.689-7.376c-3.842-2.305-11.678-2.766-14.137-1.997c-2.459,0.768-8.297,8.144-12.83,7.99
			c-4.533-0.154-9.115-5.857-12.035-5.55S140.427,141.629,149.8,147.007z"/>
		<g>
			<path fill="#FFDA84" d="M182.809,126.128c0,0-0.1,0.054-0.286,0.154c-0.198,0.083-0.433,0.292-0.747,0.508
				c-0.304,0.249-0.668,0.551-1.067,0.926c-0.399,0.374-0.851,0.796-1.343,1.256c-0.996,0.911-2.131,2.019-3.488,3.065
				c-0.68,0.521-1.41,1.039-2.211,1.486c-0.809,0.435-1.682,0.824-2.649,1.01c-0.239,0.048-0.495,0.041-0.742,0.062
				c-0.138,0.002-0.22,0.025-0.401,0.008l-0.334-0.038c-0.43-0.023-0.929-0.164-1.399-0.28c-0.89-0.29-1.704-0.693-2.45-1.126
				c-1.494-0.87-2.719-1.877-3.817-2.649c-0.548-0.39-1.048-0.74-1.503-1.038c-0.459-0.287-0.877-0.5-1.236-0.647
				c-0.363-0.113-0.656-0.226-0.867-0.223c-0.21-0.021-0.322-0.032-0.322-0.032s0.113-0.008,0.324-0.021
				c0.216-0.034,0.527,0.013,0.925,0.091c0.388,0.105,0.849,0.271,1.355,0.507c0.502,0.24,1.059,0.534,1.634,0.895
				c1.158,0.708,2.48,1.571,3.936,2.349c0.726,0.394,1.506,0.711,2.301,0.973c0.393,0.082,0.752,0.204,1.223,0.227l0.336,0.034
				c0.041,0.005,0.184-0.013,0.271-0.018c0.2-0.021,0.399-0.014,0.601-0.056c0.809-0.145,1.604-0.479,2.357-0.872
				c0.748-0.413,1.476-0.86,2.15-1.346c1.354-0.965,2.59-1.938,3.645-2.783c1.053-0.848,1.988-1.5,2.666-1.917
				c0.357-0.192,0.631-0.344,0.836-0.397C182.701,126.164,182.809,126.128,182.809,126.128z"/>
		</g>
		<g>
			<path fill="#FFDA84" d="M149.8,147.007c0.933-0.144,1.868-0.271,2.804-0.391l2.805-0.36l2.811-0.32l1.404-0.16
				c0.464-0.061,0.967-0.1,1.423-0.13c0.462-0.046,0.961-0.02,1.452-0.012c0.494,0.001,0.969,0.082,1.454,0.121
				c0.478,0.089,0.963,0.146,1.432,0.274c0.474,0.115,0.94,0.251,1.398,0.417c0.462,0.154,0.909,0.348,1.353,0.548
				c0.443,0.202,0.872,0.433,1.296,0.674c0.417,0.254,0.824,0.521,1.216,0.815c0.396,0.297,0.76,0.596,1.137,0.97h-0.703
				c1.987-2.052,4.023-4.05,6.128-5.981c1.048-0.969,2.104-1.934,3.2-2.851c0.538-0.469,1.124-0.89,1.682-1.335
				c0.28-0.221,0.558-0.446,0.877-0.621l0.918-0.553c-0.561,0.458-1.144,0.843-1.646,1.354c-0.514,0.494-1.049,0.956-1.543,1.472
				c-1,1.012-2.022,1.997-3.004,3.029l-5.908,6.159l-0.34,0.354l-0.363-0.354c-0.296-0.287-0.661-0.587-1.022-0.851
				c-0.364-0.27-0.749-0.512-1.137-0.749c-0.394-0.229-0.792-0.448-1.205-0.642c-0.412-0.19-0.829-0.376-1.261-0.523
				c-0.427-0.16-0.863-0.291-1.305-0.402c-0.438-0.128-0.891-0.196-1.336-0.293c-0.451-0.047-0.908-0.14-1.357-0.151
				c-0.451-0.02-0.893-0.061-1.372-0.029c-0.485,0.007-0.923,0.015-1.397,0.05l-1.41,0.083l-2.823,0.165l-2.826,0.126
				C151.686,146.952,150.744,146.987,149.8,147.007z"/>
		</g>
	</g>
</g>
</svg>
