<?xml version="1.0" encoding="utf-8"?>
<!-- Generator: Adobe Illustrator 16.0.0, SVG Export Plug-In . SVG Version: 6.00 Build 0)  -->
<!DOCTYPE svg PUBLIC "-//W3C//DTD SVG 1.1//EN" "http://www.w3.org/Graphics/SVG/1.1/DTD/svg11.dtd">
<svg version="1.1" id="Layer_1" xmlns="http://www.w3.org/2000/svg" xmlns:xlink="http://www.w3.org/1999/xlink" x="0px" y="0px"
	 width="283.46px" height="226.77px" viewBox="0 0 283.46 226.77" enable-background="new 0 0 283.46 226.77" xml:space="preserve">
<g>
	<path fill="#FFDA84" d="M223.1,116.713c0,0-2.176-6.599-8.669-12.272c-6.492-5.674-30.186-25.225-37.861-47.982
		c-7.677-22.757-4.228-51.36-1.078-52.241c3.151-0.881,32.683,21.23,43.257,51.859c10.571,30.629,5.358,45.757,7.457,51.417
		c2.096,5.66,2.898,6.269,2.381,8.036C228.069,117.299,226.075,118.35,223.1,116.713z"/>
	<path fill="#FBF7EC" d="M190.305,127.882c6.141-2.605,5.987-14.864,14.038-24.567c6.363-7.669,21.884-16.928,42.321-12.8
		c20.438,4.129,34.27,20.232,33.651,26.63c-0.62,6.401-17.755,28.077-36.748,30.968c0,0,1.651,19.54-6.399,35.271
		c-8.681,16.961-22.818,26.458-29.631,28.316c0,0,14.354-3.099,22.2-4.13c7.845-1.031,11.972,3.303,13.624,7.639
		c1.651,4.336,1.651,8.463-0.619,8.463c-2.271,0-173.001,0-188.073,0c-15.071,0-24.567-10.114-27.044-16.514
		c-2.478-6.401-12.593-50.064,4.129-76.695c16.722-26.632,59.869-36.541,90.423-25.806
		C152.731,115.393,176.678,133.663,190.305,127.882z"/>
	<g>
		<path fill="#FFDA84" d="M40.425,137.997c2.532-0.648,5.123-1.048,7.723-1.331c2.601-0.281,5.22-0.402,7.838-0.386
			c5.238,0.02,10.483,0.67,15.568,1.98c2.548,0.635,5.046,1.468,7.483,2.45c2.446,0.963,4.81,2.133,7.092,3.438
			c2.307,1.271,4.451,2.811,6.553,4.392c1.002,0.852,2.068,1.631,3.018,2.543l1.458,1.331c0.496,0.479,0.918,0.943,1.38,1.416
			c0.933,0.904,1.748,1.973,2.597,2.992c0.432,0.508,0.771,1.075,1.162,1.61c0.373,0.546,0.776,1.072,1.092,1.655
			c1.417,2.239,2.485,4.679,3.385,7.164c0.862,2.505,1.414,5.104,1.767,7.723c0.352,2.624,0.372,5.276,0.25,7.908
			c-0.265,5.274-1.392,10.463-2.986,15.467c-0.807,2.502-1.749,4.959-2.811,7.362c-1.067,2.404-2.219,4.756-3.578,7.034
			l-0.435-0.641c4.239-0.718,8.486-1.369,12.736-2.004c2.128-0.302,4.254-0.609,6.386-0.889c2.135-0.257,4.263-0.56,6.41-0.739
			c1.074-0.09,2.136-0.244,3.225-0.248c1.081,0.017,2.163-0.205,3.275,0.173c1.059,0.378,1.965,1.036,2.758,1.779
			c0.793,0.749,1.476,1.6,2.087,2.491c1.209,1.791,2.162,3.762,2.708,5.852c0.261,1.042,0.435,2.134,0.26,3.208
			c-0.097,0.528-0.304,1.062-0.708,1.429c-0.401,0.373-0.958,0.51-1.491,0.514c0.534-0.016,1.083-0.165,1.467-0.539
			c0.388-0.369,0.578-0.895,0.662-1.415c0.149-1.06-0.046-2.135-0.328-3.159c-0.585-2.056-1.573-3.988-2.804-5.726
			c-0.622-0.864-1.31-1.684-2.096-2.393c-0.784-0.704-1.67-1.31-2.648-1.635c-0.958-0.317-2.07-0.093-3.121-0.08
			c-1.062,0.017-2.128,0.184-3.192,0.286c-2.131,0.205-4.254,0.534-6.379,0.816c-2.124,0.305-4.244,0.639-6.364,0.967
			c-4.237,0.682-8.471,1.401-12.696,2.147l-0.908,0.161l0.474-0.802c1.309-2.216,2.452-4.569,3.493-6.943
			c1.04-2.381,1.961-4.813,2.748-7.287c1.555-4.947,2.642-10.064,2.88-15.237c0.111-2.582,0.068-5.175-0.256-7.736
			c-0.335-2.558-0.862-5.094-1.691-7.536c-0.868-2.423-1.896-4.803-3.269-6.99c-0.304-0.569-0.696-1.084-1.058-1.617
			c-0.377-0.521-0.709-1.082-1.124-1.571c-0.819-0.989-1.582-2.011-2.524-2.934c-0.449-0.463-0.907-0.967-1.349-1.396l-1.431-1.316
			c-0.932-0.904-1.979-1.675-2.962-2.519c-2.067-1.562-4.169-3.09-6.424-4.378c-2.234-1.314-4.552-2.498-6.957-3.479
			c-2.395-1-4.855-1.855-7.37-2.515c-5.021-1.351-10.211-2.07-15.42-2.223c-2.604-0.074-5.216-0.012-7.816,0.213
			C45.566,137.063,42.97,137.404,40.425,137.997z"/>
	</g>
	<path fill="#FBF7EC" d="M214.678,119.84c0,0-6.173-3.188-14.782-2.692c-8.606,0.495-39.214,3.123-60.627-7.752
		c-21.414-10.875-38.977-33.713-37.344-36.548c1.632-2.835,38.199-7.723,67.193,6.745c28.992,14.467,35.862,28.919,41.321,31.493
		c5.46,2.573,6.46,2.447,7.329,4.072C218.637,116.779,217.948,118.924,214.678,119.84z"/>
	<g>
		<circle fill="#FBF7EC" cx="25.664" cy="112.723" r="23.225"/>
		<g>
			<path fill="#FFDA84" d="M25.664,135.948c0,0,0.567-0.063,1.56-0.176c0.249-0.025,0.523-0.053,0.823-0.084
				c0.292-0.06,0.609-0.124,0.948-0.193c0.675-0.135,1.432-0.275,2.239-0.537c0.405-0.118,0.827-0.24,1.263-0.368
				c0.422-0.169,0.858-0.344,1.306-0.523c0.914-0.314,1.777-0.87,2.727-1.311c0.88-0.57,1.829-1.097,2.68-1.796
				c0.907-0.626,1.696-1.421,2.523-2.168c0.747-0.828,1.542-1.616,2.167-2.523c0.698-0.853,1.225-1.801,1.795-2.681
				c0.44-0.949,0.995-1.813,1.31-2.727c0.18-0.448,0.354-0.884,0.524-1.306c0.127-0.437,0.25-0.858,0.368-1.264
				c0.261-0.806,0.402-1.567,0.538-2.244c0.069-0.339,0.134-0.656,0.193-0.949c0.03-0.298,0.059-0.57,0.083-0.817
				c0.112-0.992,0.176-1.559,0.176-1.559s0.006,0.571,0.018,1.571c-0.001,0.252-0.002,0.529-0.003,0.833
				c-0.031,0.301-0.064,0.626-0.1,0.974c-0.065,0.698-0.132,1.491-0.36,2.328c-0.096,0.423-0.197,0.863-0.3,1.318
				c-0.147,0.443-0.3,0.902-0.457,1.374c-0.27,0.964-0.775,1.892-1.217,2.887c-0.567,0.928-1.068,1.946-1.794,2.837
				c-0.645,0.951-1.46,1.785-2.235,2.654c-0.87,0.773-1.704,1.59-2.654,2.234c-0.892,0.725-1.91,1.228-2.837,1.794
				c-0.995,0.442-1.924,0.946-2.887,1.217c-0.472,0.157-0.93,0.31-1.374,0.457c-0.456,0.104-0.896,0.205-1.318,0.301
				c-0.835,0.228-1.634,0.295-2.333,0.361c-0.348,0.035-0.674,0.069-0.976,0.1c-0.301,0.001-0.577,0.002-0.827,0.003
				C26.235,135.955,25.664,135.948,25.664,135.948z"/>
		</g>
	</g>
	<g>
		
			<radialGradient id="SVGID_1_" cx="-473.8647" cy="136.4375" r="20.0808" gradientTransform="matrix(-1 0 0 1 -240.9551 0)" gradientUnits="userSpaceOnUse">
			<stop  offset="0" style="stop-color:#F6C5C8"/>
			<stop  offset="1" style="stop-color:#FBF7EC;stop-opacity:0"/>
		</radialGradient>
		<circle fill="url(#SVGID_1_)" cx="232.91" cy="136.438" r="20.081"/>
		<path fill="#164070" d="M247.869,123.744c0.614,0.796,2.908,1.028,3.143,2.377c0.235,1.349-1.69,1.774-2.525,2.479
			c-0.834,0.706-1.727,4.006-6.485,5.366c-6.12,1.75-9.053-3.235-10.528-3.173c-1.477,0.063-3.605-0.274-2.788-1.711
			c0.422-0.737,1.926-1.068,2.411-2.397c0.486-1.328,2.719-5.493,6.293-6.44C242.674,118.843,245.988,121.304,247.869,123.744z"/>
		<path fill="#FBF7EC" d="M235.36,125.216c0.209,0.634,0.895,0.976,1.528,0.766c0.63-0.209,0.975-0.894,0.764-1.526
			c-0.211-0.634-0.895-0.975-1.528-0.766C235.49,123.899,235.148,124.584,235.36,125.216z"/>
		<g>
			<path fill="#EB8F90" d="M270.19,116.357c0,0,0.669-0.104,1.628-0.152c0.482-0.033,1.027-0.011,1.622-0.016
				c0.593-0.002,1.222,0.02,1.849,0.073c0.626,0.064,1.252,0.128,1.839,0.188c0.589,0.065,1.137,0.154,1.608,0.257
				c0.943,0.189,1.579,0.438,1.579,0.438s-0.635,0.21-1.597,0.343c-0.481,0.073-1.044,0.13-1.646,0.159
				c-0.604,0.046-1.246,0.035-1.886-0.029c-0.64-0.054-1.277-0.14-1.871-0.241c-0.594-0.093-1.146-0.262-1.61-0.403
				C270.771,116.699,270.19,116.357,270.19,116.357z"/>
		</g>
	</g>
	<g>
		<g>
			<path fill="#EB8F90" d="M36.723,180.604c0.964,3.213,6.942,4.483,14.753,3.786c-7.048,4.104-11.385,8.803-10.246,12.053
				c1.525,4.355,8.945,3.079,8.945,3.079s1.08,7.453,5.693,7.557c3.535,0.081,6.738-5.801,8.432-14.114
				c1.692,8.313,4.895,14.195,8.431,14.114c4.612-0.104,5.692-7.557,5.692-7.557s7.42,1.276,8.946-3.079
				c1.138-3.25-3.198-7.948-10.246-12.053c7.812,0.697,13.789-0.573,14.754-3.786c1.325-4.421-5.429-7.748-5.429-7.748
				s3.507-6.666-0.164-9.462c-2.644-2.014-8.147,0.405-13.995,5.462c3.161-7.313,3.843-13.5,1.056-15.43
				c-3.794-2.627-9.046,2.768-9.046,2.768s-5.253-5.395-9.047-2.768c-2.788,1.93-2.106,8.116,1.056,15.43
				c-5.849-5.057-11.352-7.476-13.996-5.462c-3.67,2.796-0.164,9.462-0.164,9.462S35.397,176.184,36.723,180.604z"/>
			<circle fill="#FBF7EC" cx="64.301" cy="179.893" r="5.107"/>
			<g>
				<g>
					<polyline fill="none" stroke="#FBF7EC" stroke-width="0.2763" stroke-miterlimit="10" points="67.413,162.377 64.301,179.893 
						60.896,165.684 					"/>
					<polyline fill="none" stroke="#FBF7EC" stroke-width="0.2763" stroke-miterlimit="10" points="49.611,172.106 64.301,179.893 
						48.735,179.013 					"/>
					<polyline fill="none" stroke="#FBF7EC" stroke-width="0.2763" stroke-miterlimit="10" points="56.517,196.327 64.154,180.201 
						53.502,189.616 					"/>
					<polyline fill="none" stroke="#FBF7EC" stroke-width="0.2763" stroke-miterlimit="10" points="71.5,196.327 64.154,180.201 
						75.584,190.979 					"/>
					<polyline fill="none" stroke="#FBF7EC" stroke-width="0.2763" stroke-miterlimit="10" points="81.616,176.775 64.154,180.201 
						77.335,172.884 					"/>
				</g>
			</g>
			<g>
				<g>
					<circle fill="#FBF7EC" cx="77.336" cy="172.884" r="1.021"/>
					<circle fill="#FBF7EC" cx="71.376" cy="196.327" r="1.021"/>
					<circle fill="#FBF7EC" cx="53.502" cy="189.542" r="1.021"/>
					<circle fill="#FBF7EC" cx="49.756" cy="172.106" r="1.021"/>
					<circle fill="#FBF7EC" cx="67.414" cy="162.377" r="1.021"/>
					<circle fill="#FBF7EC" cx="81.616" cy="176.835" r="1.021"/>
					<circle fill="#FBF7EC" cx="75.585" cy="190.855" r="1.022"/>
					<circle fill="#FBF7EC" cx="56.518" cy="196.328" r="1.022"/>
					<circle fill="#FBF7EC" cx="48.735" cy="179.169" r="1.022"/>
					<circle fill="#FBF7EC" cx="60.896" cy="165.803" r="1.022"/>
				</g>
			</g>
		</g>
		<path fill="#164070" d="M92.238,124.016c0,0-12.351,10.482-11.351,29.102C80.887,153.117,93.471,142.696,92.238,124.016z"/>
		<path fill="#164070" d="M111.243,145.988c0,0-15.632-4.246-30.413,7.12C80.83,153.108,96.543,157.582,111.243,145.988z"/>
		<path fill="#CE5355" d="M97.282,170.036c0.042,2.172,3.552,4.005,8.547,4.928c-5.112,1.336-8.634,3.514-8.489,5.739
			c0.196,2.983,5.047,3.477,5.047,3.477s-0.621,4.838,2.239,5.704c2.192,0.666,5.213-2.448,7.715-7.341
			c-0.389,5.481,0.588,9.707,2.807,10.271c2.897,0.737,4.866-3.726,4.866-3.726s4.408,2.088,6.117-0.366
			c1.275-1.831-0.614-5.514-4.298-9.301c4.753,1.794,8.704,2.041,9.864,0.203c1.596-2.528-2.04-5.78-2.04-5.78
			s3.346-3.548,1.542-5.932c-1.299-1.716-5.153-1.163-9.681,0.976c3.244-4.014,4.745-7.755,3.339-9.443
			c-1.91-2.299-6.125,0.155-6.125,0.155s-2.341-4.28-5.165-3.302c-2.075,0.721-2.725,4.699-2.023,9.812
			c-2.769-4.172-5.783-6.637-7.783-5.84c-2.776,1.107-1.747,5.875-1.747,5.875S97.223,167.046,97.282,170.036z"/>
		<path fill="#F6C5C8" d="M96.602,197.757c0.798,0.596,2.446-0.162,4.182-1.709c-0.951,2.224-1.152,4.11-0.306,4.683
			c1.135,0.766,2.675-0.851,2.675-0.851s1.576,1.583,2.693,0.793c0.856-0.609,0.577-2.574-0.491-4.855
			c1.875,1.681,3.679,2.514,4.506,1.869c1.079-0.842,0.018-2.807,0.018-2.807s1.993-1.01,1.584-2.316
			c-0.304-0.976-2.168-1.327-4.572-1.057c1.983-1.216,3.181-2.577,2.842-3.514c-0.468-1.285-2.665-0.884-2.665-0.884
			s-0.344-2.208-1.713-2.222c-0.986-0.013-1.868,1.538-2.366,3.778c-0.542-2.303-1.474-3.896-2.479-3.863
			c-1.368,0.046-1.665,2.261-1.665,2.261s-2.205-0.354-2.644,0.943c-0.322,0.953,0.936,2.305,2.982,3.486
			c-2.288-0.169-4.025,0.229-4.298,1.176c-0.379,1.317,1.636,2.282,1.636,2.282S95.503,196.94,96.602,197.757z"/>
	</g>
</g>
</svg>
