<?xml version="1.0" encoding="utf-8"?>
<!-- Generator: Adobe Illustrator 16.0.0, SVG Export Plug-In . SVG Version: 6.00 Build 0)  -->
<!DOCTYPE svg PUBLIC "-//W3C//DTD SVG 1.1//EN" "http://www.w3.org/Graphics/SVG/1.1/DTD/svg11.dtd">
<svg version="1.1" id="Layer_1" xmlns="http://www.w3.org/2000/svg" xmlns:xlink="http://www.w3.org/1999/xlink" x="0px" y="0px"
	 width="283.46px" height="226.77px" viewBox="0 0 283.46 226.77" enable-background="new 0 0 283.46 226.77" xml:space="preserve">
<g>
	<path fill="#FFDA84" d="M162.59,62.972c0,0-3.938-1.131-8.185-3.361c-4.247-2.229-14.909-15.005-33.244-18.568
		c-18.335-3.564-43.723,2.424-45.169,5.765c-1.448,3.339,6.444,5.339,17.75,11.959c9.7,5.681,32.357,14.096,43.704,11.807
		c11.345-2.289,19.755-4.16,22.94-4.193C163.568,66.347,164.888,63.743,162.59,62.972z"/>
	<path fill="#FFDA84" d="M152.501,72.957c0,0,13.459,8.481,20.333,7.134c6.875-1.347,20.399-14.846,22.651-16.03
		s11.864-1.812,14.726-1.446c2.86,0.369,3.775,1.437,3.775,1.437s2.744-0.275,5.128,1.35c2.383,1.627,1.244,3.355,1.244,3.355
		s1.688,1.243,1.629,2.66c-0.059,1.417-1.804,4.115-3.342,4.37c-1.538,0.256-12.787-0.782-15.278,1.033
		c-2.489,1.813-20.169,19.577-21.262,20.242c-1.093,0.664-23.914,3.856-34.419,7.489C147.687,104.55,141.086,90.344,152.501,72.957z
		"/>
	<g>
		<path fill="#FBF7EC" d="M183.467,80.52c0.335-3.604,8.673-7.991,10.394-22.623c0.963-8.181,0.722-13.838-0.165-19.542
			c-1.043-6.702-1.911-6.975-4.9-7.79c-7.723-2.105-30.387,1.803-37.397,20.082c-4.136,10.782-3.734,19.717-3.046,26.775
			c0,0-6.941,8.146-11.148,16.897c-4.207,8.752-4.207,14.642-6.9,19.354c-2.692,4.712-21.205,17.671-31.303,35.174
			s-13.135,38.666-7.237,53.349c4.788,11.92,11.276,20.533,14.473,20.533s104.175,0,106.027,0s1.683-3.534,0-7.741
			c-1.683-4.209-4.376-5.219-9.256-4.376c-4.882,0.842-14.082,3.04-14.082,3.04s11.053-14.989,13.913-33.838
			c2.861-18.85-2.019-36.52-20.7-32.986c0,0,8.246-19.018,6.731-36.352C187.019,89.286,182.607,89.775,183.467,80.52z"/>
		<radialGradient id="SVGID_1_" cx="181.9707" cy="62.5117" r="14.3608" gradientUnits="userSpaceOnUse">
			<stop  offset="0" style="stop-color:#F6C5C8"/>
			<stop  offset="1" style="stop-color:#FBF7EC;stop-opacity:0"/>
		</radialGradient>
		<circle fill="url(#SVGID_1_)" cx="181.97" cy="62.51" r="14.361"/>
		<g>
			<path fill="#164070" d="M186.067,49.785c0.146-0.341-0.014-0.737-0.355-0.881c-0.343-0.146-1.1,0.646-1.259,0.692
				c-0.212,0.06-0.258,0.037-0.467-0.041c-2.004-0.746-4.529,1.074-5.644,4.065c-0.745,2.001-0.275,3.916-0.201,5.441
				c0.017,0.344-0.268,1.175-0.268,1.175c-0.146,0.342,0.013,0.737,0.354,0.883c0.343,0.146,1.085-0.701,1.259-0.753
				c0.201-0.059,0.268-0.054,0.467,0.021c2.004,0.746,4.531-1.074,5.644-4.065c0.738-1.984,0.31-3.821,0.243-5.337
				C185.827,50.654,186.067,49.785,186.067,49.785z"/>
			
				<ellipse transform="matrix(0.9784 0.2069 -0.2069 0.9784 15.4837 -35.9443)" fill="#FBF7EC" cx="179.601" cy="56.059" rx="0.631" ry="0.909"/>
		</g>
		<g>
			<path fill="#EB8F90" d="M190.722,37.245c0,0,0.033-0.385,0.074-0.946c0.04-0.277,0.03-0.608,0.071-0.952
				c0.003-0.348,0.053-0.715,0.051-1.083c-0.001-0.367,0.04-0.737,0.016-1.081c-0.023-0.342,0.026-0.675-0.017-0.949
				c-0.048-0.553-0.04-0.948-0.04-0.948s0.163,0.343,0.348,0.897c0.092,0.276,0.138,0.61,0.195,0.969
				c0.072,0.359,0.038,0.746,0.05,1.132c-0.011,0.386-0.07,0.768-0.121,1.124c-0.077,0.353-0.16,0.679-0.25,0.953
				C190.924,36.911,190.722,37.245,190.722,37.245z"/>
		</g>
	</g>
	<g>
		<g>
			<path fill="#EB8F90" d="M182.811,175.905c0,0,2.357-4.479-0.11-6.361c-1.777-1.354-5.479,0.272-9.41,3.673
				c2.126-4.918,2.585-9.078,0.71-10.375c-2.552-1.766-6.083,1.861-6.083,1.861s-3.533-3.627-6.085-1.861
				c-1.874,1.297-1.416,5.457,0.71,10.375c-3.932-3.4-7.632-5.027-9.409-3.673c-2.469,1.882-0.11,6.361-0.11,6.361
				s-4.542,2.239-3.649,5.211c0.646,2.162,4.667,3.017,9.92,2.548c-4.739,2.759-7.654,5.918-6.89,8.104
				c1.026,2.929,6.016,2.071,6.016,2.071s0.727,5.011,3.829,5.079c2.375,0.056,4.529-3.9,5.669-9.49
				c1.138,5.59,3.292,9.546,5.669,9.49c3.102-0.068,3.828-5.079,3.828-5.079s4.99,0.857,6.015-2.071
				c0.766-2.186-2.149-5.345-6.889-8.104c5.253,0.469,9.272-0.386,9.921-2.548C187.352,178.145,182.811,175.905,182.811,175.905z"/>
			<circle fill="#FBF7EC" cx="167.917" cy="180.638" r="3.435"/>
			<g>
				<g>
					<polyline fill="none" stroke="#FBF7EC" stroke-width="0.2763" stroke-miterlimit="10" points="165.823,168.86 167.917,180.638 
						170.206,171.085 					"/>
					<polyline fill="none" stroke="#FBF7EC" stroke-width="0.2763" stroke-miterlimit="10" points="177.795,175.4 167.917,180.638 
						178.383,180.046 					"/>
					<polyline fill="none" stroke="#FBF7EC" stroke-width="0.2763" stroke-miterlimit="10" points="173.149,191.689 
						168.015,180.846 175.178,187.176 					"/>
					<polyline fill="none" stroke="#FBF7EC" stroke-width="0.2763" stroke-miterlimit="10" points="163.075,191.689 
						168.015,180.846 160.328,188.093 					"/>
					<polyline fill="none" stroke="#FBF7EC" stroke-width="0.2763" stroke-miterlimit="10" points="156.272,178.542 
						168.015,180.846 159.15,175.925 					"/>
				</g>
			</g>
			<g>
				<g>
					<circle fill="#FBF7EC" cx="159.15" cy="175.925" r="0.687"/>
					<circle fill="#FBF7EC" cx="163.159" cy="191.689" r="0.687"/>
					<circle fill="#FBF7EC" cx="175.178" cy="187.126" r="0.687"/>
					<circle fill="#FBF7EC" cx="177.696" cy="175.4" r="0.687"/>
					<circle fill="#FBF7EC" cx="165.823" cy="168.86" r="0.687"/>
					<circle fill="#FBF7EC" cx="156.272" cy="178.581" r="0.687"/>
					<circle fill="#FBF7EC" cx="160.328" cy="188.011" r="0.687"/>
					<circle fill="#FBF7EC" cx="173.15" cy="191.689" r="0.687"/>
					<circle fill="#FBF7EC" cx="178.383" cy="180.152" r="0.686"/>
					<circle fill="#FBF7EC" cx="170.207" cy="171.164" r="0.687"/>
				</g>
			</g>
		</g>
		<g>
			<path fill="#F6C5C8" d="M142.764,183.855c0,0,3.429-0.626,3.4-2.763c-0.022-1.537-2.475-2.853-5.987-3.539
				c3.567-0.937,6.017-2.455,5.923-4.022c-0.127-2.133-3.593-2.506-3.593-2.506s0.465-3.454-1.576-4.088
				c-1.499-0.464-3.559,1.554-5.319,4.793c0.172-3.575-0.519-6.271-2.008-6.658c-2.067-0.538-3.494,2.643-3.494,2.643
				s-3.142-1.51-4.374,0.235c-0.896,1.27,0.349,3.812,2.834,6.457c-3.508-1.396-6.46-1.634-7.318-0.289
				c-1.151,1.8,1.434,4.139,1.434,4.139s-2.407,2.521-1.128,4.233c0.982,1.311,4.04,0.797,7.552-0.962
				c-2.545,2.993-3.774,5.84-2.734,7.104c1.357,1.651,4.38-0.084,4.38-0.084s1.654,3.067,3.677,2.38
				c1.509-0.515,1.983-3.436,1.464-7.176c1.978,3.045,4.148,4.859,5.595,4.293C143.48,187.268,142.764,183.855,142.764,183.855z"/>
			<circle fill="#FBF7EC" cx="133.873" cy="177.794" r="2.365"/>
			<g>
				<g>
					<polyline fill="none" stroke="#FBF7EC" stroke-width="0.2763" stroke-miterlimit="10" points="139.366,171.657 
						133.872,177.795 140.021,174.978 					"/>
					<polyline fill="none" stroke="#FBF7EC" stroke-width="0.2763" stroke-miterlimit="10" points="140.906,180.923 
						133.872,177.795 138.64,183.215 					"/>
					<polyline fill="none" stroke="#FBF7EC" stroke-width="0.2763" stroke-miterlimit="10" points="130.108,185.326 
						133.801,177.937 133.415,184.507 					"/>
					<polyline fill="none" stroke="#FBF7EC" stroke-width="0.2763" stroke-miterlimit="10" points="125.828,179.868 
						133.801,177.937 126.61,176.85 					"/>
					<polyline fill="none" stroke="#FBF7EC" stroke-width="0.2763" stroke-miterlimit="10" points="130.062,170.595 
						133.801,177.937 132.702,171.044 					"/>
				</g>
			</g>
			<g>
				<g>
					<circle fill="#FBF7EC" cx="132.703" cy="171.043" r="0.472"/>
					<circle fill="#FBF7EC" cx="125.863" cy="179.912" r="0.473"/>
					<circle fill="#FBF7EC" cx="133.441" cy="184.487" r="0.473"/>
					<circle fill="#FBF7EC" cx="140.864" cy="180.87" r="0.473"/>
					<circle fill="#FBF7EC" cx="139.365" cy="171.657" r="0.474"/>
					<circle fill="#FBF7EC" cx="130.04" cy="170.612" r="0.473"/>
					<circle fill="#FBF7EC" cx="126.655" cy="176.815" r="0.473"/>
					<circle fill="#FBF7EC" cx="130.107" cy="185.326" r="0.472"/>
					<circle fill="#FBF7EC" cx="138.583" cy="183.259" r="0.473"/>
					<circle fill="#FBF7EC" cx="139.979" cy="175.011" r="0.474"/>
				</g>
			</g>
		</g>
		<g>
			<path fill="#F6C5C8" d="M152.353,203.517c0,0,2.328,1.061,3.206-0.237c0.633-0.937-0.294-2.757-2.122-4.643
				c2.542,0.932,4.654,1.043,5.255,0.062c0.819-1.338-1.112-3.017-1.112-3.017s1.729-1.887,0.766-3.125
				c-0.709-0.907-2.795-0.557-5.216,0.656c1.604-2.081,2.318-3.995,1.584-4.854c-1.02-1.19-3.213,0.128-3.213,0.128
				s-1.26-2.228-2.733-1.694c-1.071,0.39-1.388,2.442-1.001,5.08c-1.528-2.313-3.206-3.693-4.286-3.245
				c-1.448,0.603-0.873,3.095-0.873,3.095s-2.508,0.509-2.454,2.077c0.041,1.2,2.098,2.174,4.952,2.589
				c-2.789,0.734-4.723,1.934-4.628,3.132c0.125,1.563,2.673,1.786,2.673,1.786s-0.289,2.543,1.218,2.976
				c1.124,0.323,2.635-1.237,3.892-3.708c-0.086,2.664,0.46,4.667,1.568,4.934C151.353,205.872,152.353,203.517,152.353,203.517z"/>
			<circle fill="#FBF7EC" cx="149.539" cy="196.137" r="1.736"/>
			<g>
				<g>
					<polyline fill="none" stroke="#FBF7EC" stroke-width="0.2763" stroke-miterlimit="10" points="155.421,194.743 
						149.538,196.138 154.424,197.02 					"/>
					<polyline fill="none" stroke="#FBF7EC" stroke-width="0.2763" stroke-miterlimit="10" points="152.464,200.972 
						149.538,196.138 150.137,201.4 					"/>
					<polyline fill="none" stroke="#FBF7EC" stroke-width="0.2763" stroke-miterlimit="10" points="144.112,199.094 
						149.437,196.192 146.447,199.987 					"/>
					<polyline fill="none" stroke="#FBF7EC" stroke-width="0.2763" stroke-miterlimit="10" points="143.824,194.011 
						149.437,196.192 145.561,192.521 					"/>
					<polyline fill="none" stroke="#FBF7EC" stroke-width="0.2763" stroke-miterlimit="10" points="150.264,190.202 
						149.437,196.192 151.665,191.579 					"/>
				</g>
			</g>
			<g>
				<g>
					<circle fill="#FBF7EC" cx="151.666" cy="191.58" r="0.348"/>
					<circle fill="#FBF7EC" cx="143.826" cy="194.053" r="0.348"/>
					<circle fill="#FBF7EC" cx="146.472" cy="199.986" r="0.347"/>
					<circle fill="#FBF7EC" cx="152.46" cy="200.921" r="0.348"/>
					<circle fill="#FBF7EC" cx="155.422" cy="194.743" r="0.346"/>
					<circle fill="#FBF7EC" cx="150.244" cy="190.203" r="0.348"/>
					<circle fill="#FBF7EC" cx="145.602" cy="192.52" r="0.347"/>
					<circle fill="#FBF7EC" cx="144.112" cy="199.094" r="0.347"/>
					<circle fill="#FBF7EC" cx="150.084" cy="201.404" r="0.347"/>
					<circle fill="#FBF7EC" cx="154.384" cy="197.021" r="0.348"/>
				</g>
			</g>
		</g>
		<path fill="#164070" d="M167.814,160.063c0,0-3.936-8.016,1.867-18.247C169.682,141.815,172.715,149.772,167.814,160.063z"/>
		<path fill="#164070" d="M157.136,165.674c0,0-8.927,0.19-15.759-9.387C141.376,156.287,149.871,156.893,157.136,165.674z"/>
	</g>
	<path fill="#FBF7EC" d="M175.743,93.871c0,0,15.596,3.142,21.543-0.561c5.945-3.702,13.79-21.126,15.473-23.035
		c1.682-1.908,10.443-5.912,13.249-6.585c2.805-0.673,4.039,0,4.039,0s2.468-1.234,5.273-0.562c2.805,0.674,2.356,2.694,2.356,2.694
		s2.02,0.561,2.468,1.907c0.448,1.347-0.224,4.488-1.571,5.273c-1.347,0.785-12.229,3.815-13.911,6.396
		c-1.684,2.581-11.894,25.468-12.679,26.478c-0.786,1.01-20.98,12.106-29.508,19.236
		C182.476,125.111,171.255,114.178,175.743,93.871z"/>
	<g>
		<circle fill="#FBF7EC" cx="86.883" cy="190.384" r="20.55"/>
		<g>
			<path fill="#FFDA84" d="M86.883,169.834c0,0,0.252,0.003,0.725,0.01c0.472,0.032,1.169-0.048,2.047,0.101
				c0.441,0.058,0.93,0.12,1.462,0.189c0.523,0.119,1.088,0.248,1.692,0.386c0.602,0.15,1.218,0.394,1.883,0.605
				c0.659,0.229,1.307,0.581,2.009,0.89c0.667,0.375,1.368,0.764,2.059,1.219c0.663,0.495,1.394,0.954,2.032,1.564
				c1.366,1.121,2.585,2.557,3.669,4.149c1.081,1.604,1.903,3.441,2.539,5.367c0.594,1.946,0.873,4.005,0.932,6.069
				c-0.054,2.031-0.337,4.129-0.931,6.069c-0.636,1.926-1.458,3.764-2.539,5.368c-1.084,1.592-2.302,3.029-3.668,4.149
				c-0.639,0.611-1.37,1.069-2.033,1.564c-0.69,0.455-1.392,0.844-2.059,1.219c-0.703,0.309-1.351,0.659-2.009,0.891
				c-0.666,0.212-1.281,0.455-1.883,0.604c-0.604,0.138-1.169,0.267-1.692,0.386c-0.531,0.068-1.018,0.131-1.458,0.188
				c-0.876,0.148-1.581,0.068-2.051,0.101c-0.473,0.007-0.725,0.01-0.725,0.01s0.251-0.022,0.723-0.063
				c0.469-0.063,1.166-0.051,2.027-0.24c0.431-0.08,0.909-0.169,1.428-0.266c0.507-0.146,1.056-0.304,1.642-0.472
				c0.582-0.18,1.173-0.453,1.809-0.694c0.629-0.26,1.254-0.616,1.924-0.94c0.637-0.388,1.305-0.788,1.958-1.252
				c0.626-0.503,1.317-0.967,1.914-1.579c1.282-1.124,2.391-2.554,3.427-4.08c1.02-1.549,1.784-3.317,2.372-5.163
				c0.546-1.871,0.784-3.799,0.826-5.8c-0.037-1.968-0.278-3.935-0.825-5.801c-0.588-1.846-1.353-3.613-2.372-5.163
				c-1.037-1.526-2.144-2.957-3.427-4.08c-0.597-0.613-1.288-1.076-1.914-1.58c-0.654-0.463-1.322-0.863-1.958-1.251
				c-0.67-0.324-1.295-0.68-1.924-0.94c-0.636-0.241-1.227-0.515-1.809-0.694c-0.586-0.168-1.135-0.326-1.643-0.472
				c-0.519-0.097-0.995-0.185-1.425-0.265c-0.859-0.189-1.564-0.177-2.031-0.24C87.134,169.856,86.883,169.834,86.883,169.834z"/>
		</g>
	</g>
	<g>
		<path fill="#FBF7EC" d="M172.544,66.339c0,0-2.376-3.337-4.311-7.726c-1.934-4.389-2.322-21.025-14.45-35.231
			c-12.126-14.207-35.72-25.329-38.932-23.615c-3.213,1.712,1.718,8.189,6.442,20.409c4.052,10.486,16.54,31.181,26.843,36.456
			c10.304,5.272,18.047,9.047,20.561,11.003C171.209,69.59,173.863,68.375,172.544,66.339z"/>
		<g>
			<path fill="#FFDA84" d="M121.293,20.175c0,0,0.112,0.247,0.321,0.709c0.216,0.459,0.502,1.148,0.925,1.994
				c0.409,0.853,0.912,1.883,1.537,3.043c0.601,1.171,1.347,2.457,2.129,3.874c0.803,1.407,1.699,2.915,2.684,4.486
				c0.992,1.567,2.062,3.204,3.199,4.874c1.137,1.67,2.35,3.372,3.655,5.041c0.634,0.85,1.317,1.67,2.004,2.491
				c0.67,0.837,1.4,1.625,2.122,2.419c1.426,1.607,2.973,3.089,4.563,4.465c1.653,1.316,3.318,2.438,5.169,3.32
				c3.605,1.86,6.943,3.65,9.813,5.174c1.436,0.758,2.736,1.485,3.884,2.139c1.147,0.653,2.141,1.238,2.947,1.737
				c0.804,0.505,1.429,0.911,1.828,1.228c0.407,0.303,0.624,0.465,0.624,0.465s-0.228-0.146-0.655-0.42
				c-0.415-0.291-1.073-0.638-1.895-1.104c-1.658-0.912-4.081-2.107-6.991-3.543c-2.902-1.449-6.328-3.071-9.949-4.902
				c-0.452-0.231-0.91-0.45-1.369-0.697c-0.454-0.267-0.912-0.536-1.373-0.807c-0.474-0.253-0.896-0.58-1.327-0.9
				c-0.43-0.321-0.862-0.643-1.297-0.966c-1.647-1.395-3.247-2.894-4.708-4.513c-0.725-0.815-1.458-1.623-2.126-2.477
				c-0.688-0.839-1.37-1.676-2.001-2.541c-1.301-1.701-2.506-3.428-3.634-5.124c-1.144-1.686-2.153-3.376-3.103-4.981
				c-0.941-1.611-1.793-3.155-2.555-4.593c-0.751-1.443-1.429-2.771-1.969-3.979c-0.565-1.194-1.018-2.255-1.383-3.131
				c-0.386-0.867-0.609-1.578-0.797-2.05C121.387,20.429,121.293,20.175,121.293,20.175z"/>
		</g>
	</g>
</g>
</svg>
