<?xml version="1.0" encoding="utf-8"?>
<!-- Generator: Adobe Illustrator 16.0.0, SVG Export Plug-In . SVG Version: 6.00 Build 0)  -->
<!DOCTYPE svg PUBLIC "-//W3C//DTD SVG 1.1//EN" "http://www.w3.org/Graphics/SVG/1.1/DTD/svg11.dtd">
<svg version="1.1" id="Layer_1" xmlns="http://www.w3.org/2000/svg" xmlns:xlink="http://www.w3.org/1999/xlink" x="0px" y="0px"
	 width="283.46px" height="226.77px" viewBox="0 0 283.46 226.77" enable-background="new 0 0 283.46 226.77" xml:space="preserve">
<g>
	<path fill="#EB8F90" d="M151.856,122.855c0,0,5.869-1.294,5.684-4.973c-0.133-2.65-4.443-4.761-10.539-5.721
		c6.088-1.84,10.212-4.61,9.953-7.305c-0.353-3.666-6.348-4.092-6.348-4.092s0.583-5.981-2.973-6.942
		c-2.613-0.706-6.035,2.897-8.866,8.593c0.072-6.172-1.288-10.773-3.878-11.349c-3.597-0.797-5.854,4.773-5.854,4.773
		s-5.509-2.403-7.521,0.682c-1.463,2.244,0.842,6.544,5.291,10.948c-6.134-2.185-11.232-2.408-12.628-0.04
		c-1.87,3.174,2.73,7.042,2.73,7.042s-3.987,4.497-1.676,7.364c1.772,2.197,7.009,1.12,12.951-2.13
		c-4.198,5.315-6.135,10.298-4.265,12.412c2.44,2.76,7.541-0.421,7.541-0.421s3.044,5.183,6.485,3.869
		c2.568-0.979,3.2-6.044,2.072-12.456c3.599,5.123,7.452,8.113,9.909,7.046C153.305,128.688,151.856,122.855,151.856,122.855z"/>
	<circle fill="#FBF7EC" cx="136.154" cy="112.974" r="4.077"/>
	<g>
		<g>
			<polyline fill="none" stroke="#FBF7EC" stroke-width="0.3086" stroke-miterlimit="10" points="145.231,102.053 136.154,112.974 
				146.573,107.731 			"/>
			<polyline fill="none" stroke="#FBF7EC" stroke-width="0.3086" stroke-miterlimit="10" points="148.47,117.92 136.154,112.974 
				144.71,122.012 			"/>
			<polyline fill="none" stroke="#FBF7EC" stroke-width="0.3086" stroke-miterlimit="10" points="130.141,126.186 136.042,113.222 
				135.788,124.567 			"/>
			<polyline fill="none" stroke="#FBF7EC" stroke-width="0.3086" stroke-miterlimit="10" points="122.424,117.05 136.042,113.222 
				123.581,111.803 			"/>
			<polyline fill="none" stroke="#FBF7EC" stroke-width="0.3086" stroke-miterlimit="10" points="129.136,100.808 136.042,113.222 
				133.714,101.414 			"/>
		</g>
	</g>
	<g>
		<g>
			<circle fill="#FBF7EC" cx="133.713" cy="101.414" r="0.815"/>
			<circle fill="#FBF7EC" cx="122.487" cy="117.125" r="0.815"/>
			<circle fill="#FBF7EC" cx="135.832" cy="124.529" r="0.816"/>
			<circle fill="#FBF7EC" cx="148.395" cy="117.831" r="0.815"/>
			<circle fill="#FBF7EC" cx="145.232" cy="102.053" r="0.816"/>
			<circle fill="#FBF7EC" cx="129.1" cy="100.838" r="0.815"/>
			<circle fill="#FBF7EC" cx="123.656" cy="111.74" r="0.815"/>
			<circle fill="#FBF7EC" cx="130.141" cy="126.186" r="0.815"/>
			<circle fill="#FBF7EC" cx="144.613" cy="122.093" r="0.816"/>
			<circle fill="#FBF7EC" cx="146.5" cy="107.792" r="0.816"/>
		</g>
	</g>
</g>
</svg>
